<svg id="Layer_1" data-name="Layer 1" xmlns="http://www.w3.org/2000/svg" viewBox="0 0 400 400"><defs><style>.cls-1,.cls-2{fill:none;stroke:#000;stroke-miterlimit:10;}.cls-1{stroke-width:4px;}.cls-2{stroke-width:9px;}</style></defs><title>Active Switch</title><circle cx="46.32" cy="139.32" r="35.32"/><path d="M46.32,106A33.32,33.32,0,1,1,13,139.32,33.35,33.35,0,0,1,46.32,106m0-4a37.32,37.32,0,1,0,37.31,37.32A37.32,37.32,0,0,0,46.32,102Z"/><circle cx="345.48" cy="139.32" r="35.32"/><path d="M345.48,106a33.32,33.32,0,1,1-33.31,33.32A33.36,33.36,0,0,1,345.48,106m0-4a37.32,37.32,0,1,0,37.32,37.32A37.32,37.32,0,0,0,345.48,102Z"/><line class="cls-1" x1="83.24" y1="139.18" x2="308" y2="139.18"/><line class="cls-1" x1="198.55" y1="138.96" x2="198.55" y2="234.48"/><circle class="cls-2" cx="198.55" cy="267.16" r="32.84"/></svg>