<svg id="Layer_1" data-name="Layer 1" xmlns="http://www.w3.org/2000/svg" viewBox="0 0 396.85 396.85"><defs><style>.cls-1{fill:#3d7cc9;}.cls-2{fill:#382f2d;}</style></defs><title>Square Black-Blue on White</title><path class="cls-1" d="M267.27,29.11H237.62l-60,72.3,60,72.34-60,72.34,89.6-72.34-59.95-72.34Z"/><rect class="cls-2" x="151.93" y="29.07" width="25.6" height="144.68"/><path class="cls-2" d="M37.7,268.32H43v50.93H37.7Zm28.64,0H73L50,293.7l24.62,25.55H67.72l-24.36-25Z"/><path class="cls-2" d="M97.73,319.25H92.42V268.32h5.31Z"/><path class="cls-2" d="M158.28,311.53V268.32h5.14v50.93h-5.31l-30.36-43.13v43.13h-5.14V268.32h5.48Z"/><path class="cls-2" d="M217.63,314.62v4.63H188.3V268.32h29V273H193.62v18h22.12v4.63H193.62v19Z"/><path class="cls-2" d="M256.48,319.25h-5.32V273H234.35v-4.63h38.93V273h-16.8Z"/><path class="cls-2" d="M297.47,319.25h-5.31V268.32h5.31Z"/><path class="cls-2" d="M359.3,277.49a20.18,20.18,0,0,0-14.15-5.23c-11.49,0-20.84,8.4-20.84,21.52s9.35,21.53,20.84,21.53c5.41,0,10.72-1.63,14.41-5.06v6.08a28.45,28.45,0,0,1-14.32,3.78c-15.44,0-26.33-10.72-26.33-26.33s11.67-26.32,26.33-26.32a27,27,0,0,1,14.06,3.86Z"/><path class="cls-2" d="M37.1,360.79c2.94,2.33,5.57,3.74,9.24,3.74,4.35,0,8.09-1.9,8.09-6.67,0-4.35-3.25-6-7.6-7.6-6.49-2.39-10-4.53-10-10.72s5.15-9.37,10.6-9.37a13.62,13.62,0,0,1,8.69,2.88V337c-2.94-2.32-5.39-3.55-8.69-3.55-4.11,0-6.92,2.45-6.92,6.18,0,3.5,2.08,5.21,7.35,7,6.73,2.32,10.28,4.84,10.28,11.21,0,6.67-5.26,9.92-11.82,9.92A14.85,14.85,0,0,1,37.1,365Z"/><path class="cls-2" d="M99.75,337.34a14.44,14.44,0,0,0-10.1-3.74c-8.21,0-14.89,6-14.89,15.37s6.68,15.38,14.89,15.38a15.08,15.08,0,0,0,10.28-3.62v4.35a20.29,20.29,0,0,1-10.22,2.7c-11,0-18.8-7.66-18.8-18.81s8.32-18.8,18.8-18.8a19.28,19.28,0,0,1,10,2.76Z"/><path class="cls-2" d="M118.74,367.16h-3.8V330.79h3.8Z"/><path class="cls-2" d="M157.45,363.86v3.3H136.5V330.79h20.7v3.3H140.3V347h15.8v3.31H140.3v13.6Z"/><path class="cls-2" d="M198.55,361.65V330.79h3.67v36.37h-3.8l-21.67-30.8v30.8h-3.68V330.79H177Z"/><path class="cls-2" d="M231.5,367.16h-3.8V334.09h-12v-3.3h27.8v3.3h-12Z"/><path class="cls-2" d="M260.78,367.16H257V330.79h3.8Z"/><path class="cls-2" d="M278.54,367.16V330.79h18.62v3.3H282.34v13.17h13.47v3.37H282.34v16.53Z"/><path class="cls-2" d="M315.66,367.16h-3.8V330.79h3.8Z"/><path class="cls-2" d="M359.81,337.34a14.42,14.42,0,0,0-10.1-3.74c-8.2,0-14.88,6-14.88,15.37s6.68,15.38,14.88,15.38A15.09,15.09,0,0,0,360,360.73v4.35a20.32,20.32,0,0,1-10.23,2.7c-11,0-18.8-7.66-18.8-18.81s8.33-18.8,18.8-18.8a19.22,19.22,0,0,1,10,2.76Z"/></svg>